<svg xmlns="http://www.w3.org/2000/svg" width="803" height="235" fill="#ffffff" fill-rule="evenodd" xmlns:v="https://vecta.io/nano"><path d="M290.841 23.58a8.92 8.92 0 0 0-1.977-2.226 9.1 9.1 0 0 0-2.678-1.496c-.993-.357-2.038-.535-3.128-.535-1.993 0-3.687.386-5.076 1.156s-2.52 1.805-3.382 3.101-1.496 2.774-1.892 4.427-.592 3.364-.592 5.131c0 1.691.197 3.336.592 4.933s1.025 3.038 1.892 4.315 1.993 2.303 3.382 3.074 3.083 1.155 5.076 1.155c2.708 0 4.822-.826 6.343-2.482s2.454-3.833 2.794-6.541h8.569c-.228 2.52-.812 4.794-1.749 6.826s-2.181 3.759-3.722 5.187-3.346 2.52-5.41 3.27-4.346 1.129-6.825 1.129c-3.083 0-5.857-.536-8.316-1.608s-4.543-2.545-6.232-4.427-2.991-4.089-3.893-6.627-1.355-5.271-1.355-8.204c0-3.007.451-5.798 1.355-8.374s2.2-4.82 3.893-6.739 3.768-3.42 6.232-4.51 5.233-1.635 8.316-1.635c2.216 0 4.314.319 6.287.958s3.742 1.569 5.299 2.791 2.849 2.736 3.864 4.538 1.652 3.874 1.916 6.204h-8.569c-.152-1.014-.491-1.945-1.014-2.791m21.818 18.383c.229 1.111.615 2.107 1.157 2.989a6.15 6.15 0 0 0 2.17 2.115c.903.527 2.034.788 3.387.788s2.49-.261 3.412-.788a6.05 6.05 0 0 0 2.197-2.115c.543-.885.932-1.878 1.155-2.989.229-1.108.34-2.246.34-3.412a17.22 17.22 0 0 0-.34-3.438c-.223-1.129-.608-2.125-1.155-2.989s-1.279-1.57-2.197-2.115-2.058-.818-3.412-.818-2.484.274-3.387.818-1.622 1.25-2.17 2.115c-.542.864-.928 1.86-1.157 2.989a17.76 17.76 0 0 0-.333 3.438 17.33 17.33 0 0 0 .333 3.412zm-7.27-9.755c.71-1.897 1.728-3.514 3.042-4.851s2.895-2.368 4.736-3.1 3.909-1.101 6.206-1.101 4.371.368 6.232 1.101 3.448 1.767 4.762 3.1 2.332 2.954 3.046 4.851 1.071 4.013 1.071 6.343-.356 4.436-1.071 6.318-1.728 3.486-3.046 4.819-2.901 2.361-4.762 3.076-3.94 1.07-6.232 1.07-4.36-.358-6.206-1.07-3.418-1.739-4.736-3.076-2.332-2.941-3.042-4.819-1.075-3.986-1.075-6.318.36-4.444 1.075-6.343h0zm41.106-8.261v4.06h.173c1.014-1.691 2.327-2.924 3.945-3.694s3.271-1.157 4.964-1.157c2.14 0 3.9.292 5.269.875s2.454 1.392 3.245 2.424 1.344 2.294 1.663 3.78.482 3.128.482 4.934v17.932h-8.012V36.634c0-2.406-.375-4.201-1.126-5.385s-2.089-1.777-4.005-1.777c-2.181 0-3.758.649-4.736 1.947s-1.466 3.43-1.466 6.399v15.283h-8.006V23.947h7.61m31.833 21.908c.356.621.817 1.128 1.38 1.521s1.212.687 1.948.875a9.04 9.04 0 0 0 2.281.281 8.56 8.56 0 0 0 1.78-.195 6.1 6.1 0 0 0 1.689-.621c.506-.282.932-.657 1.272-1.128s.507-1.062.507-1.778c0-1.201-.801-2.104-2.399-2.705s-3.828-1.204-6.682-1.805l-3.413-.93c-1.111-.358-2.094-.827-2.961-1.41a6.82 6.82 0 0 1-2.084-2.201c-.527-.885-.791-1.962-.791-3.24 0-1.881.37-3.422 1.1-4.624.736-1.204 1.699-2.153 2.906-2.85s2.555-1.184 4.061-1.465a25.06 25.06 0 0 1 4.619-.424c1.582 0 3.114.153 4.6.452s2.809.809 3.975 1.524 2.134 1.663 2.905 2.847 1.227 2.679 1.38 4.482h-7.612c-.111-1.541-.699-2.583-1.749-3.128s-2.292-.82-3.721-.82c-.452 0-.939.029-1.466.087s-1.009.177-1.441.365a3.02 3.02 0 0 0-1.099.819c-.299.357-.451.836-.451 1.437 0 .715.263 1.298.791 1.747s1.212.819 2.058 1.101a25.52 25.52 0 0 0 2.906.76l3.326.735a34.24 34.24 0 0 1 3.413.959c1.104.375 2.094.874 2.961 1.493a7.3 7.3 0 0 1 2.084 2.312c.527.923.791 2.058.791 3.412 0 1.917-.386 3.524-1.157 4.82s-1.774 2.342-3.016 3.131-2.662 1.344-4.26 1.663a24.79 24.79 0 0 1-4.878.48c-1.688 0-3.347-.17-4.959-.508s-3.057-.902-4.315-1.691-2.297-1.833-3.103-3.13-1.248-2.924-1.323-4.878h7.61c0 .866.178 1.607.537 2.228m30.252-3.892c.228 1.111.614 2.107 1.156 2.989a6.15 6.15 0 0 0 2.171 2.115c.902.527 2.033.788 3.386.788s2.491-.261 3.413-.788a6.07 6.07 0 0 0 2.196-2.115c.548-.882.932-1.878 1.156-2.989a16.96 16.96 0 0 0 .34-3.412c0-1.164-.113-2.31-.34-3.438s-.608-2.125-1.156-2.989a6.47 6.47 0 0 0-2.196-2.115c-.922-.544-2.058-.818-3.413-.818s-2.484.274-3.386.818a6.51 6.51 0 0 0-2.171 2.115c-.542.864-.928 1.86-1.156 2.989s-.335 2.274-.335 3.438a17.27 17.27 0 0 0 .335 3.412zm-7.271-9.755c.71-1.897 1.728-3.514 3.042-4.851s2.895-2.368 4.736-3.1 3.909-1.101 6.206-1.101c2.292 0 4.371.368 6.232 1.101s3.448 1.767 4.761 3.1c1.319 1.337 2.333 2.954 3.048 4.851s1.07 4.013 1.07 6.343-.355 4.436-1.07 6.318-1.729 3.486-3.048 4.819c-1.313 1.337-2.9 2.361-4.761 3.076s-3.94 1.07-6.232 1.07-4.36-.358-6.206-1.07-3.418-1.739-4.736-3.076-2.332-2.941-3.042-4.819-1.075-3.986-1.075-6.318.36-4.444 1.075-6.343h0zm41.163-8.261v5.414h.111c.375-.903.888-1.74 1.527-2.511a9.96 9.96 0 0 1 2.195-1.972c.827-.545 1.714-.969 2.652-1.27a9.6 9.6 0 0 1 2.931-.452c.527 0 1.11.097 1.749.285v7.443c-.375-.076-.826-.142-1.353-.198l-1.522-.086c-1.465 0-2.708.246-3.722.733s-1.83 1.156-2.454 2.003c-.618.846-1.059 1.833-1.323 2.961s-.396 2.35-.396 3.666v13.138h-8.006V23.947h7.611m26.504 5.244c-1.278 0-2.353.291-3.215.874a6.9 6.9 0 0 0-2.114 2.256c-.548.921-.934 1.937-1.156 3.045-.229 1.108-.34 2.209-.34 3.299 0 1.052.111 2.124.34 3.215.222 1.09.592 2.076 1.1 2.959a6.31 6.31 0 0 0 2.059 2.172c.861.563 1.916.844 3.153.844 1.917 0 3.393-.535 4.427-1.604s1.683-2.511 1.947-4.316h7.728c-.528 3.872-2.034 6.823-4.513 8.854s-5.659 3.045-9.533 3.045c-2.18 0-4.178-.366-6.003-1.101s-3.372-1.757-4.651-3.073-2.276-2.885-2.991-4.708-1.07-3.825-1.07-6.006c0-2.256.33-4.35.984-6.287s1.627-3.608 2.906-5.018 2.839-2.509 4.679-3.301 3.95-1.184 6.319-1.184c1.729 0 3.392.226 4.989.678s3.027 1.138 4.285 2.058 2.286 2.069 3.072 3.441 1.242 2.999 1.354 4.877h-7.839c-.523-3.346-2.5-5.019-5.917-5.019m17.93 23.909h8.005V23.947h-8.005V53.1zm0-33.665h8.005v-6.597h-8.005v6.597zm47.257 15.536c-.228-1.108-.614-2.087-1.156-2.933a6.57 6.57 0 0 0-2.114-2.056c-.867-.528-1.957-.791-3.277-.791-1.312 0-2.422.263-3.326.791a6.26 6.26 0 0 0-2.17 2.086c-.543.865-.938 1.851-1.181 2.959a15.86 15.86 0 0 0-.37 3.468c0 1.128.131 2.257.395 3.385s.685 2.134 1.268 3.017a7.06 7.06 0 0 0 2.201 2.142c.882.545 1.947.816 3.183.816 1.32 0 2.419-.261 3.302-.788a5.99 5.99 0 0 0 2.114-2.115c.528-.882.903-1.888 1.131-3.017s.334-2.292.334-3.496a17.57 17.57 0 0 0-.334-3.468zm.334 14.408c-.937 1.58-2.17 2.715-3.691 3.413s-3.245 1.042-5.161 1.042c-2.181 0-4.098-.424-5.75-1.268s-3.018-1.993-4.087-3.44c-1.075-1.448-1.882-3.111-2.429-4.993s-.816-3.833-.816-5.864c0-1.954.273-3.843.816-5.666s1.354-3.43 2.429-4.822a12.06 12.06 0 0 1 4.031-3.355c1.612-.846 3.493-1.27 5.638-1.27 1.729 0 3.372.368 4.933 1.101s2.789 1.815 3.692 3.243h.117V12.838h8.006v40.263h-7.61v-3.722h-.118 0zm21.825-36.541v8.627c.035 1.24-.142 2.406-.533 3.497s-.953 2.048-1.669 2.875c-.709.829-1.566 1.516-2.565 2.058-.993.545-2.073.895-3.24 1.045v-3.722c1.43-.489 2.404-1.212 2.93-2.173s.791-2.132.791-3.524h-3.721v-8.683h8.007m37.05 0v7.443h-21.26v8.628h19.511v6.881h-19.511v9.867h21.711v7.444h-30.565V12.838h30.114m25.206 22.133c-.223-1.108-.614-2.087-1.156-2.933a6.57 6.57 0 0 0-2.114-2.056c-.867-.528-1.958-.791-3.271-.791s-2.423.263-3.326.791a6.21 6.21 0 0 0-2.171 2.086c-.547.865-.942 1.851-1.186 2.959s-.365 2.266-.365 3.468c0 1.128.131 2.257.395 3.385s.685 2.134 1.269 3.017 1.312 1.597 2.2 2.142c.882.545 1.942.816 3.184.816 1.313 0 2.413-.261 3.301-.788a5.99 5.99 0 0 0 2.114-2.115c.523-.882.903-1.888 1.126-3.017s.34-2.292.34-3.496a17.2 17.2 0 0 0-.34-3.468zm.34 14.408c-.943 1.58-2.171 2.715-3.697 3.413s-3.239 1.042-5.156 1.042c-2.181 0-4.097-.424-5.755-1.268s-3.018-1.993-4.087-3.44-1.882-3.111-2.424-4.993c-.548-1.878-.816-3.833-.816-5.864 0-1.954.268-3.843.816-5.666.542-1.823 1.354-3.43 2.424-4.822a12.06 12.06 0 0 1 4.031-3.355c1.617-.846 3.498-1.27 5.638-1.27a11.45 11.45 0 0 1 4.933 1.101c1.563.732 2.794 1.815 3.698 3.243h.111V12.838h8.006v40.263h-7.61v-3.722h-.112 0zm32.705 3.722v-4.059h-.173c-1.013 1.691-2.327 2.913-3.944 3.663s-3.27 1.129-4.965 1.129c-2.139 0-3.898-.282-5.273-.845-1.368-.565-2.448-1.364-3.239-2.398s-1.344-2.292-1.664-3.778-.482-3.128-.482-4.933V23.947h8.007v16.465c0 2.408.38 4.203 1.131 5.387s2.084 1.775 4.006 1.775c2.174 0 3.756-.649 4.735-1.944s1.466-3.431 1.466-6.402V23.947h8.006v29.154h-7.611m26.895-23.91c-1.278 0-2.348.291-3.215.874s-1.567 1.336-2.114 2.256-.929 1.937-1.157 3.045-.334 2.209-.334 3.299a16.03 16.03 0 0 0 .334 3.215c.228 1.09.593 2.076 1.1 2.959a6.32 6.32 0 0 0 2.059 2.172c.867.563 1.917.844 3.159.844 1.917 0 3.392-.535 4.427-1.604s1.683-2.511 1.947-4.316h7.723c-.528 3.872-2.029 6.823-4.513 8.854s-5.654 3.045-9.528 3.045c-2.18 0-4.183-.366-6.003-1.101-1.826-.732-3.377-1.757-4.656-3.073s-2.276-2.885-2.986-4.708-1.075-3.825-1.075-6.006c0-2.256.33-4.35.989-6.287s1.627-3.608 2.905-5.018 2.834-2.509 4.68-3.301 3.945-1.184 6.313-1.184c1.729 0 3.392.226 4.995.678 1.597.451 3.022 1.138 4.285 2.058a11.09 11.09 0 0 1 3.072 3.441c.791 1.371 1.242 2.999 1.354 4.877h-7.839c-.528-3.346-2.5-5.019-5.922-5.019m35.864 9.644c-.335.301-.761.535-1.267.705a13.78 13.78 0 0 1-1.633.423l-1.836.281-1.917.282c-.604.111-1.192.263-1.775.451s-1.089.441-1.526.76c-.431.32-.78.726-1.039 1.212s-.396 1.111-.396 1.861c0 .716.132 1.319.396 1.805a3.05 3.05 0 0 0 1.069 1.157c.451.282.979.479 1.577.593a10.26 10.26 0 0 0 1.862.167c1.582 0 2.803-.261 3.666-.788s1.506-1.156 1.916-1.889c.416-.733.67-1.475.765-2.228l.138-1.803v-2.989zm-18.493-5.923c.112-1.878.578-3.44 1.41-4.68.826-1.24 1.876-2.236 3.153-2.989s2.718-1.285 4.316-1.608c1.597-.316 3.205-.479 4.822-.479 1.465 0 2.951.104 4.457.312s2.875.611 4.112 1.212c1.243.601 2.256 1.438 3.047 2.51s1.187 2.49 1.187 4.257v15.168c0 1.316.071 2.576.223 3.778s.411 2.107.791 2.708h-8.123c-.147-.451-.274-.91-.365-1.382s-.162-.948-.198-1.438c-1.277 1.316-2.783 2.237-4.513 2.764a18.07 18.07 0 0 1-5.299.789c-1.388 0-2.686-.17-3.888-.508s-2.257-.864-3.159-1.579a7.35 7.35 0 0 1-2.115-2.705c-.507-1.09-.76-2.389-.76-3.892 0-1.653.289-3.017.872-4.089s1.334-1.925 2.256-2.566 1.973-1.118 3.16-1.438c1.18-.319 2.373-.573 3.579-.76l3.55-.451c1.166-.114 2.2-.282 3.103-.507s1.617-.556 2.145-.989c.522-.431.77-1.06.73-1.889 0-.865-.138-1.549-.421-2.059s-.659-.9-1.131-1.184c-.466-.281-1.014-.469-1.632-.563a13.37 13.37 0 0 0-2.003-.142c-1.578 0-2.82.34-3.722 1.017s-1.43 1.803-1.577 3.382h-8.007 0zm45.899-3.721c-1.278 0-2.347.291-3.215.874-.862.583-1.566 1.336-2.114 2.256s-.928 1.937-1.156 3.045a16.33 16.33 0 0 0-.335 3.299 16.03 16.03 0 0 0 .335 3.215c.228 1.09.593 2.076 1.101 2.959s1.191 1.606 2.058 2.172 1.916.844 3.158.844c1.917 0 3.393-.535 4.427-1.604s1.684-2.511 1.947-4.316h7.723c-.527 3.872-2.028 6.823-4.513 8.854-2.479 2.031-5.654 3.045-9.527 3.045-2.181 0-4.184-.366-6.004-1.101s-3.377-1.757-4.655-3.073-2.277-2.885-2.987-4.708-1.075-3.825-1.075-6.006c0-2.256.33-4.35.99-6.287s1.627-3.608 2.905-5.018 2.835-2.509 4.68-3.301 3.945-1.184 6.313-1.184c1.729 0 3.393.226 4.994.678s3.023 1.138 4.285 2.058a11.08 11.08 0 0 1 3.073 3.441c.791 1.371 1.242 2.999 1.354 4.877h-7.84c-.527-3.346-2.499-5.019-5.922-5.019M759.723 53.1h8.006V23.947h-8.006V53.1zm0-33.665h8.006v-6.597h-8.006v6.597zm29.434-10.6l-5.978 9.981h5.583l9.193-9.981h-8.798zm-8.458 33.128c.224 1.111.609 2.107 1.157 2.989a6.1 6.1 0 0 0 2.171 2.115c.902.527 2.027.788 3.381.788s2.49-.261 3.413-.788 1.653-1.23 2.201-2.115c.542-.882.927-1.878 1.155-2.989a17.18 17.18 0 0 0 .335-3.412c0-1.164-.111-2.31-.335-3.438s-.613-2.125-1.155-2.989a6.43 6.43 0 0 0-2.201-2.115c-.923-.544-2.059-.818-3.413-.818s-2.479.274-3.381.818-1.628 1.25-2.171 2.115-.933 1.86-1.157 2.989a17.38 17.38 0 0 0-.338 3.438 16.96 16.96 0 0 0 .338 3.412zm-7.276-9.755c.716-1.897 1.73-3.514 3.048-4.851s2.895-2.368 4.736-3.1 3.909-1.101 6.201-1.101 4.371.368 6.232 1.101 3.448 1.767 4.766 3.1 2.328 2.954 3.042 4.851 1.076 4.013 1.076 6.343-.361 4.436-1.076 6.318-1.728 3.486-3.042 4.819-2.905 2.361-4.766 3.076-3.94 1.07-6.232 1.07-4.361-.358-6.201-1.07-3.423-1.739-4.736-3.076-2.332-2.941-3.048-4.819-1.069-3.986-1.069-6.318.354-4.444 1.069-6.343h0zm-488.9 59.151c-.223-1.108-.614-2.087-1.156-2.934s-1.252-1.531-2.115-2.056-1.957-.791-3.27-.791c-1.319 0-2.424.263-3.326.791s-1.627 1.222-2.17 2.086-.944 1.851-1.187 2.959-.365 2.267-.365 3.468a14.87 14.87 0 0 0 .395 3.385c.259 1.128.685 2.134 1.268 3.017s1.313 1.597 2.201 2.142c.882.545 1.942.817 3.184.817 1.313 0 2.414-.261 3.302-.789.881-.525 1.586-1.229 2.114-2.114.522-.882.902-1.889 1.125-3.017s.34-2.292.34-3.496a17.2 17.2 0 0 0-.34-3.468zm.34 14.407c-.943 1.58-2.17 2.716-3.697 3.413-1.521.695-3.24 1.042-5.156 1.042-2.181 0-4.098-.424-5.756-1.268-1.652-.846-3.016-1.992-4.087-3.44s-1.881-3.111-2.424-4.992-.815-3.833-.815-5.864c0-1.955.269-3.844.815-5.667s1.355-3.43 2.424-4.822 2.414-2.51 4.032-3.354 3.499-1.27 5.638-1.27c1.73 0 3.377.368 4.934 1.1s2.794 1.816 3.696 3.243h.111V69.225h8.007v40.263h-7.611v-3.722h-.111 0zm30.646-18.609c-.958-1.052-2.413-1.579-4.37-1.579-1.278 0-2.338.218-3.185.649s-1.521.968-2.028 1.607-.867 1.316-1.075 2.031-.329 1.351-.365 1.917h13.026c-.375-2.031-1.044-3.572-2.003-4.625zm-9.051 15.339c1.202 1.166 2.937 1.747 5.188 1.747 1.617 0 3.007-.404 4.173-1.212s1.881-1.663 2.144-2.566h7.049c-1.126 3.496-2.855 5.998-5.187 7.499s-5.152 2.257-8.458 2.257c-2.297 0-4.361-.365-6.207-1.1-1.84-.733-3.402-1.775-4.679-3.129s-2.262-2.969-2.957-4.85-1.044-3.948-1.044-6.204c0-2.178.354-4.208 1.069-6.09s1.73-3.504 3.048-4.878 2.885-2.451 4.705-3.242c1.826-.788 3.844-1.184 6.065-1.184 2.479 0 4.639.479 6.485 1.44s3.351 2.246 4.538 3.861 2.039 3.461 2.566 5.527.715 4.229.563 6.486h-21.033c.112 2.593.771 4.474 1.972 5.638h0zm55.599.112a11.79 11.79 0 0 0 2.485-.254c.791-.167 1.486-.452 2.084-.845.604-.395 1.08-.93 1.44-1.607s.538-1.541.538-2.593c0-2.069-.583-3.545-1.75-4.427s-2.707-1.326-4.624-1.326h-9.645v11.052h9.472zm-.507-17.086c1.582 0 2.881-.375 3.895-1.128s1.521-1.972 1.521-3.666c0-.938-.168-1.709-.508-2.312a3.79 3.79 0 0 0-1.353-1.41c-.563-.337-1.212-.57-1.947-.705-.73-.129-1.491-.195-2.282-.195h-8.291v9.416h8.965zm1.131-16.297c1.917 0 3.666.17 5.243.508s2.931.894 4.062 1.663 2.003 1.797 2.621 3.075.928 2.857.928 4.736c0 2.03-.457 3.721-1.379 5.075s-2.282 2.462-4.087 3.327c2.479.714 4.33 1.964 5.552 3.75s1.835 3.939 1.835 6.457c0 2.03-.395 3.788-1.186 5.271s-1.851 2.7-3.184 3.638c-1.339.94-2.86 1.635-4.568 2.086a20.63 20.63 0 0 1-5.275.677h-19.51V69.225h18.948 0zm37.33 25.997c-.34.302-.761.535-1.268.705a13.8 13.8 0 0 1-1.637.423l-1.831.281-1.917.282a14.45 14.45 0 0 0-1.78.451c-.583.188-1.089.442-1.521.761s-.78.725-1.044 1.212-.396 1.11-.396 1.861c0 .715.132 1.318.396 1.805s.623.875 1.069 1.156c.452.282.979.479 1.582.593a10.14 10.14 0 0 0 1.862.168c1.577 0 2.799-.262 3.666-.789.861-.527 1.501-1.156 1.916-1.889s.665-1.475.76-2.228l.143-1.803v-2.989zM381.513 89.3c.111-1.879.583-3.44 1.41-4.681s1.881-2.236 3.158-2.988 2.713-1.286 4.316-1.608c1.597-.317 3.205-.479 4.822-.479a32.47 32.47 0 0 1 4.452.312c1.506.205 2.875.611 4.117 1.212s2.256 1.437 3.042 2.509 1.187 2.49 1.187 4.257v15.169c0 1.315.076 2.576.224 3.777s.416 2.107.791 2.708h-8.119c-.152-.451-.273-.91-.37-1.381a11.9 11.9 0 0 1-.192-1.438 10.48 10.48 0 0 1-4.514 2.763c-1.728.525-3.498.789-5.303.789-1.389 0-2.688-.17-3.889-.507s-2.257-.865-3.159-1.58a7.35 7.35 0 0 1-2.115-2.705c-.507-1.09-.76-2.388-.76-3.891 0-1.654.289-3.017.877-4.09.578-1.07 1.334-1.924 2.252-2.566s1.977-1.118 3.158-1.437 2.379-.573 3.58-.761l3.555-.451c1.166-.114 2.2-.281 3.103-.507s1.612-.555 2.14-.989.77-1.06.735-1.889c0-.864-.143-1.549-.426-2.058a3.1 3.1 0 0 0-1.126-1.184c-.472-.284-1.014-.469-1.637-.563a13.36 13.36 0 0 0-1.998-.142c-1.582 0-2.82.34-3.722 1.017s-1.43 1.802-1.582 3.382h-8.007 0zm39.586-8.965v5.413h.112c.375-.903.887-1.74 1.526-2.51a9.97 9.97 0 0 1 2.196-1.973 10.85 10.85 0 0 1 2.651-1.27c.937-.302 1.917-.451 2.931-.451.527 0 1.111.096 1.75.284v7.444c-.375-.077-.827-.142-1.355-.198s-1.034-.087-1.52-.087c-1.466 0-2.708.247-3.722.733s-1.831 1.156-2.454 2.003-1.06 1.833-1.324 2.961-.396 2.35-.396 3.666v13.138h-8.005V80.335h7.61m26.504 5.243c-1.277 0-2.353.291-3.214.874-.867.584-1.572 1.337-2.115 2.257a9.66 9.66 0 0 0-1.157 3.045c-.227 1.108-.338 2.208-.338 3.298 0 1.053.111 2.125.338 3.215s.594 2.076 1.101 2.959a6.31 6.31 0 0 0 2.059 2.173c.862.562 1.917.844 3.154.844 1.917 0 3.392-.535 4.427-1.605s1.683-2.51 1.946-4.315h7.729c-.528 3.871-2.035 6.822-4.514 8.853s-5.658 3.045-9.532 3.045c-2.181 0-4.179-.365-6.004-1.1s-3.372-1.758-4.65-3.073c-1.283-1.316-2.276-2.885-2.991-4.708s-1.07-3.826-1.07-6.006c0-2.257.33-4.351.983-6.288.659-1.934 1.628-3.607 2.905-5.017s2.84-2.51 4.681-3.301 3.95-1.184 6.318-1.184c1.729 0 3.392.226 4.99.677s3.026 1.138 4.284 2.058 2.287 2.069 3.073 3.441 1.242 2.999 1.354 4.878h-7.839c-.523-3.347-2.5-5.02-5.918-5.02m35.327 1.579c-.958-1.052-2.414-1.579-4.371-1.579-1.277 0-2.337.218-3.185.649s-1.52.968-2.027 1.607c-.513.639-.867 1.316-1.075 2.031s-.33 1.351-.365 1.917h13.026c-.375-2.031-1.045-3.572-2.003-4.625zm-9.051 15.339c1.201 1.166 2.936 1.747 5.187 1.747 1.618 0 3.007-.404 4.174-1.212s1.88-1.663 2.144-2.566h7.048c-1.125 3.496-2.855 5.998-5.187 7.499s-5.152 2.257-8.458 2.257c-2.296 0-4.36-.365-6.206-1.1-1.84-.733-3.403-1.775-4.68-3.129s-2.262-2.969-2.956-4.85c-.701-1.879-1.045-3.948-1.045-6.204 0-2.178.355-4.208 1.07-6.09s1.729-3.504 3.048-4.878c1.312-1.371 2.885-2.451 4.705-3.242s3.844-1.184 6.064-1.184c2.48 0 4.64.479 6.486 1.44s3.351 2.246 4.538 3.861c1.181 1.618 2.038 3.461 2.565 5.527s.715 4.229.564 6.486h-21.033c.111 2.593.77 4.474 1.972 5.638h0zm23.289 6.992h8.006V69.225h-8.006zM518.2 98.351c.229 1.11.615 2.107 1.157 2.989a6.14 6.14 0 0 0 2.171 2.114c.902.528 2.033.789 3.386.789s2.49-.261 3.412-.789 1.654-1.229 2.197-2.114.932-1.879 1.155-2.989.34-2.246.34-3.413-.112-2.31-.34-3.438-.608-2.124-1.155-2.989-1.279-1.569-2.197-2.114-2.058-.819-3.412-.819-2.484.274-3.386.819-1.623 1.25-2.171 2.114c-.542.865-.928 1.861-1.157 2.989a17.77 17.77 0 0 0-.334 3.438c0 1.167.112 2.305.334 3.413zm-7.27-9.756c.71-1.897 1.728-3.514 3.042-4.85s2.895-2.368 4.736-3.101 3.909-1.1 6.206-1.1 4.371.368 6.232 1.1 3.448 1.767 4.761 3.101c1.319 1.336 2.333 2.953 3.047 4.85s1.071 4.013 1.071 6.343-.355 4.437-1.071 6.318-1.728 3.486-3.047 4.82c-1.313 1.336-2.9 2.36-4.761 3.075s-3.94 1.07-6.232 1.07-4.36-.358-6.206-1.07-3.418-1.739-4.736-3.075-2.332-2.941-3.042-4.82-1.075-3.985-1.075-6.318.36-4.444 1.075-6.343h0zm41.163-8.26v4.059h.172c1.015-1.691 2.327-2.923 3.945-3.694s3.271-1.156 4.964-1.156c2.14 0 3.899.292 5.269.875s2.454 1.391 3.245 2.423c.791 1.037 1.343 2.295 1.663 3.78s.481 3.129.481 4.934v17.932h-8.011V93.022c0-2.407-.375-4.202-1.125-5.386s-2.09-1.776-4.006-1.776c-2.181 0-3.758.648-4.737 1.946s-1.464 3.43-1.464 6.399v15.283h-8.007V80.335h7.611m43.252 14.887c-.34.302-.761.535-1.268.705a13.8 13.8 0 0 1-1.637.423l-1.831.281-1.917.282c-.603.112-1.197.264-1.78.451s-1.089.442-1.521.761-.78.725-1.044 1.212-.396 1.11-.396 1.861c0 .715.132 1.318.396 1.805s.623.875 1.069 1.156.979.479 1.582.593a10.14 10.14 0 0 0 1.862.168c1.577 0 2.798-.262 3.666-.789.861-.527 1.501-1.156 1.916-1.889s.665-1.475.76-2.228l.143-1.803v-2.989zM576.847 89.3c.111-1.879.583-3.44 1.41-4.681a9.61 9.61 0 0 1 3.159-2.988c1.278-.751 2.712-1.286 4.315-1.608 1.597-.317 3.205-.479 4.822-.479a32.47 32.47 0 0 1 4.452.312c1.506.205 2.875.611 4.117 1.212s2.257 1.437 3.042 2.509c.791 1.071 1.187 2.49 1.187 4.257v15.169a31.11 31.11 0 0 0 .223 3.777c.153 1.204.416 2.107.791 2.708h-8.118c-.152-.451-.273-.91-.37-1.381a11.9 11.9 0 0 1-.192-1.438c-1.283 1.315-2.784 2.236-4.513 2.763a18.17 18.17 0 0 1-5.305.789c-1.388 0-2.687-.17-3.888-.507s-2.257-.865-3.159-1.58a7.35 7.35 0 0 1-2.115-2.705c-.507-1.09-.76-2.388-.76-3.891 0-1.654.289-3.017.877-4.09.578-1.07 1.334-1.924 2.251-2.566.923-.639 1.978-1.118 3.159-1.437 1.187-.319 2.379-.573 3.58-.761l3.554-.451c1.166-.114 2.201-.281 3.104-.507s1.612-.555 2.14-.989.77-1.06.735-1.889c0-.864-.143-1.549-.426-2.058a3.1 3.1 0 0 0-1.126-1.184c-.472-.284-1.014-.469-1.637-.563s-1.289-.142-1.999-.142c-1.582 0-2.819.34-3.721 1.017s-1.43 1.802-1.582 3.382h-8.007 0zm-283.151 76.844l-.461-6.69h-.107c-.614 1.305-1.38 2.428-2.287 3.372a12.48 12.48 0 0 1-3.012 2.314c-1.1.601-2.271 1.037-3.524 1.314a18.21 18.21 0 0 1-3.884.41c-2.886 0-5.415-.522-7.591-1.569s-3.99-2.444-5.43-4.193-2.521-3.775-3.241-6.073-1.084-4.718-1.084-7.255.36-4.959 1.084-7.256 1.801-4.333 3.241-6.1 3.25-3.172 5.43-4.219 4.705-1.569 7.591-1.569c1.916 0 3.738.256 5.451.771 1.719.514 3.245 1.287 4.583 2.316s2.47 2.298 3.398 3.809 1.556 3.275 1.901 5.298h-3.498c-.101-1.062-.457-2.134-1.055-3.215s-1.41-2.065-2.418-2.958c-1.015-.893-2.221-1.623-3.631-2.188s-2.982-.849-4.731-.849c-2.439 0-4.528.464-6.282 1.389s-3.18 2.152-4.295 3.679-1.937 3.253-2.47 5.172a22.08 22.08 0 0 0-.796 5.92 22.17 22.17 0 0 0 .796 5.892c.533 1.937 1.354 3.671 2.47 5.197s2.545 2.753 4.295 3.679 3.843 1.389 6.282 1.389c2.024 0 3.833-.335 5.426-1.004s2.94-1.602 4.041-2.804c1.095-1.199 1.922-2.624 2.469-4.272s.806-3.448.771-5.403h-12.504v-2.984h15.592v18.68h-2.52m27.097-18.68c-.395-1.133-.953-2.137-1.674-3.012s-1.596-1.576-2.626-2.109-2.196-.796-3.499-.796c-1.338 0-2.52.266-3.549.796s-1.907 1.235-2.626 2.109-1.293 1.889-1.725 3.038a14.77 14.77 0 0 0-.847 3.524h17.185c-.03-1.235-.248-2.419-.639-3.55zm-16.058 9.906a9.97 9.97 0 0 0 1.571 3.372c.721.993 1.628 1.817 2.728 2.469s2.419.979 3.96.979c2.369 0 4.219-.619 5.558-1.854s2.267-2.882 2.778-4.941h3.246c-.69 3.02-1.953 5.352-3.783 7-1.836 1.645-4.436 2.469-7.799 2.469-2.093 0-3.904-.367-5.43-1.105s-2.769-1.75-3.727-3.037c-.964-1.286-1.674-2.779-2.139-4.478s-.696-3.49-.696-5.377c0-1.749.234-3.466.696-5.147s1.175-3.181 2.139-4.502c.958-1.321 2.2-2.383 3.727-3.19s3.337-1.209 5.43-1.209c2.125 0 3.946.428 5.457 1.286 1.505.859 2.733 1.982 3.675 3.371s1.623 2.984 2.033 4.784c.417 1.803.584 3.628.518 5.482h-20.43c0 1.166.163 2.375.488 3.628h0zm27.503-17.781v4.582h.106c.618-1.612 1.714-2.908 3.291-3.887s3.311-1.465 5.197-1.465c1.856 0 3.408.241 4.66.72s2.256 1.158 3.012 2.033c.75.875 1.282 1.947 1.592 3.215s.461 2.695.461 4.272v17.085h-3.24v-16.57c0-1.133-.101-2.188-.309-3.164-.203-.979-.563-1.828-1.08-2.548s-1.207-1.286-2.084-1.699-1.963-.616-3.266-.616-2.463.23-3.473.695-1.871 1.097-2.575 1.904-1.253 1.767-1.649 2.88-.608 2.325-.643 3.628v15.49h-3.241v-26.555h3.241m42.896 7.875a9.74 9.74 0 0 0-1.673-3.012 8.3 8.3 0 0 0-2.627-2.109c-1.029-.53-2.195-.796-3.498-.796-1.339 0-2.52.266-3.55.796a8.28 8.28 0 0 0-2.627 2.109c-.721.874-1.292 1.889-1.723 3.038a14.77 14.77 0 0 0-.847 3.524h17.185c-.032-1.235-.249-2.419-.64-3.55zm-16.058 9.906c.325 1.252.852 2.375 1.572 3.372a8.93 8.93 0 0 0 2.728 2.469c1.1.652 2.418.979 3.96.979 2.367 0 4.219-.619 5.557-1.854s2.266-2.882 2.779-4.941h3.245c-.689 3.02-1.952 5.352-3.783 7s-4.436 2.469-7.798 2.469c-2.094 0-3.904-.367-5.43-1.105s-2.769-1.75-3.728-3.037-1.673-2.779-2.14-4.478c-.461-1.698-.694-3.49-.694-5.377 0-1.749.233-3.466.694-5.147.467-1.68 1.177-3.181 2.14-4.502s2.201-2.383 3.728-3.19 3.336-1.209 5.43-1.209c2.124 0 3.945.428 5.456 1.286a10.84 10.84 0 0 1 3.676 3.371c.943 1.389 1.622 2.984 2.033 4.784a21.19 21.19 0 0 1 .518 5.482h-20.43c0 1.166.162 2.375.487 3.628h0zm27.3-17.781v6.228h.107c.821-2.161 2.098-3.824 3.833-4.993 1.729-1.163 3.798-1.695 6.201-1.594v3.242c-1.476-.068-2.815.13-4.016.591a9.03 9.03 0 0 0-3.113 1.983c-.872.856-1.552 1.878-2.033 3.063s-.721 2.476-.721 3.883v14.152h-3.239v-26.555h2.981m30.104 12.043c-.208.378-.598.652-1.182.824a11.89 11.89 0 0 1-1.546.361l-4.244.643c-1.461.188-2.789.472-3.99.847s-2.186.92-2.957 1.623-1.161 1.706-1.161 3.009c0 .824.162 1.554.492 2.188a5.23 5.23 0 0 0 1.313 1.646c.548.463 1.182.816 1.902 1.057a7.02 7.02 0 0 0 2.216.36 11.13 11.13 0 0 0 3.549-.568c1.13-.375 2.12-.926 2.956-1.646.842-.72 1.511-1.595 2.008-2.624s.745-2.195.745-3.501v-4.219h-.101zm-16.211-7.925c.548-1.131 1.293-2.059 2.241-2.779s2.049-1.252 3.316-1.594 2.678-.515 4.219-.515c1.166 0 2.333.111 3.504.334s2.211.642 3.139 1.261 1.679 1.483 2.262 2.598.876 2.566.876 4.348v14.102c0 1.303.634 1.955 1.902 1.955.381 0 .721-.069 1.029-.206v2.728l-1.004.154c-.289.034-.659.051-1.105.051-.822 0-1.486-.111-1.983-.334s-.881-.54-1.156-.951-.456-.903-.542-1.468-.127-1.192-.127-1.879h-.101c-.583.86-1.177 1.623-1.775 2.29a8.89 8.89 0 0 1-2.008 1.673c-.741.446-1.577.788-2.52 1.03s-2.069.359-3.372.359c-1.238 0-2.394-.147-3.474-.436s-2.028-.755-2.829-1.389c-.811-.637-1.445-1.443-1.906-2.419s-.695-2.137-.695-3.476c0-1.85.411-3.301 1.237-4.347s1.912-1.844 3.265-2.394 2.88-.933 4.58-1.156l5.171-.644 1.805-.256c.513-.104.943-.284 1.283-.543s.609-.608.801-1.054.279-1.03.279-1.75c0-1.098-.177-1.997-.537-2.7a4.23 4.23 0 0 0-1.496-1.673c-.634-.414-1.369-.695-2.211-.85a14.99 14.99 0 0 0-2.702-.23c-2.059 0-3.737.487-5.041 1.465s-1.992 2.548-2.059 4.708h-3.245c.107-1.544.432-2.88.979-4.013h0zm26.094 22.437h3.24v-36.743h-3.24zm9.517 0h3.245v-26.555h-3.245v26.555zm0-31.546h3.245v-5.197h-3.245v5.197zm20.019 4.991v2.729h-5.401v17.909c0 1.062.143 1.896.437 2.495s1.018.935 2.185 1.004a24.82 24.82 0 0 0 2.779-.155v2.728l-1.441.051-1.439.051c-2.16 0-3.671-.419-4.528-1.261s-1.273-2.393-1.238-4.657v-18.165h-4.629v-2.729h4.629v-7.975h3.245v7.975h5.401m21.565 12.043c-.208.378-.603.652-1.186.824s-1.096.292-1.542.361l-4.249.643c-1.455.188-2.784.472-3.986.847s-2.19.92-2.961 1.623-1.156 1.706-1.156 3.009c0 .824.162 1.554.486 2.188a5.39 5.39 0 0 0 1.314 1.646c.548.463 1.186.816 1.906 1.057s1.456.36 2.211.36a11.12 11.12 0 0 0 3.55-.568c1.136-.375 2.119-.926 2.961-1.646s1.511-1.595 2.008-2.624.746-2.195.746-3.501v-4.219h-.102zm-16.211-7.925c.548-1.131 1.293-2.059 2.237-2.779s2.047-1.252 3.321-1.594c1.267-.343 2.672-.515 4.219-.515a18.58 18.58 0 0 1 3.498.334c1.167.224 2.211.642 3.138 1.261s1.684 1.483 2.267 2.598.872 2.566.872 4.348v14.102c0 1.303.634 1.955 1.907 1.955.375 0 .72-.069 1.03-.206v2.728l-1.004.154c-.294.034-.665.051-1.106.051-.827 0-1.486-.111-1.982-.334s-.883-.54-1.157-.951-.457-.903-.542-1.468-.127-1.192-.127-1.879h-.107c-.583.86-1.176 1.623-1.774 2.29s-1.268 1.227-2.008 1.673-1.577.788-2.521 1.03-2.068.359-3.372.359c-1.231 0-2.392-.147-3.472-.436s-2.024-.755-2.83-1.389a6.64 6.64 0 0 1-1.902-2.419c-.462-.976-.694-2.137-.694-3.476 0-1.85.411-3.301 1.232-4.347s1.911-1.844 3.271-2.394c1.353-.547 2.88-.933 4.578-1.156l5.173-.644 1.8-.256c.511-.104.943-.284 1.288-.543.339-.256.608-.608.796-1.054s.284-1.03.284-1.75c0-1.098-.183-1.997-.543-2.7s-.858-1.262-1.491-1.673-1.374-.695-2.21-.85c-.842-.154-1.746-.23-2.704-.23-2.058 0-3.742.487-5.044 1.465s-1.989 2.548-2.059 4.708h-3.24c.101-1.544.426-2.88.978-4.013h0zm36.589-4.118v2.729h-5.405v17.909c0 1.062.147 1.896.436 2.495s1.025.935 2.191 1.004c.923 0 1.85-.051 2.778-.155v2.728l-1.439.051-1.446.051c-2.16 0-3.671-.419-4.528-1.261s-1.268-2.393-1.231-4.657v-18.165h-4.635v-2.729h4.635v-7.975h3.239v7.975h5.405m20.196 17.37c.326 1.356.837 2.566 1.542 3.628s1.602 1.929 2.702 2.599 2.419 1.004 3.96 1.004c1.72 0 3.17-.335 4.351-1.004s2.146-1.536 2.881-2.599 1.272-2.272 1.597-3.628a17.54 17.54 0 0 0 .487-4.092 17.55 17.55 0 0 0-.487-4.092c-.325-1.354-.857-2.563-1.597-3.628s-1.699-1.929-2.881-2.599-2.631-1.001-4.351-1.001c-1.541 0-2.864.332-3.96 1.001s-1.998 1.537-2.702 2.599-1.216 2.274-1.542 3.628-.491 2.72-.491 4.092a17.28 17.28 0 0 0 .491 4.092zm17.778 9.185v-5.042h-.101c-.346.857-.852 1.645-1.521 2.367s-1.43 1.329-2.288 1.826a11.93 11.93 0 0 1-2.752 1.159c-.979.273-1.948.41-2.912.41-2.022 0-3.777-.367-5.273-1.105-1.49-.738-2.732-1.75-3.731-3.037s-1.73-2.779-2.211-4.478-.72-3.49-.72-5.377.238-3.679.72-5.377 1.216-3.19 2.211-4.478a10.83 10.83 0 0 1 3.731-3.062c1.496-.753 3.251-1.131 5.273-1.131.999 0 1.968.119 2.912.36a9.84 9.84 0 0 1 2.651 1.105c.821.5 1.552 1.108 2.185 1.828s1.122 1.562 1.466 2.52h.102v-15.231h3.245v36.743h-2.987 0zm27.609-18.68a9.74 9.74 0 0 0-1.673-3.012c-.72-.874-1.592-1.576-2.621-2.109s-2.196-.796-3.499-.796c-1.339 0-2.525.266-3.555.796s-1.901 1.235-2.621 2.109a10.45 10.45 0 0 0-1.724 3.038c-.431 1.151-.715 2.325-.852 3.524h17.19a11.74 11.74 0 0 0-.645-3.55zm-16.053 9.906c.325 1.252.847 2.375 1.567 3.372s1.628 1.817 2.727 2.469 2.419.979 3.966.979c2.362 0 4.219-.619 5.558-1.854 1.333-1.234 2.26-2.882 2.778-4.941h3.24c-.684 3.02-1.947 5.352-3.783 7s-4.432 2.469-7.793 2.469c-2.095 0-3.904-.367-5.431-1.105s-2.773-1.75-3.732-3.037-1.673-2.779-2.135-4.478-.694-3.49-.694-5.377a19.18 19.18 0 0 1 .694-5.147c.462-1.68 1.177-3.181 2.135-4.502s2.206-2.383 3.732-3.19 3.336-1.209 5.431-1.209c2.124 0 3.944.428 5.45 1.286a10.86 10.86 0 0 1 3.682 3.371c.943 1.389 1.623 2.984 2.033 4.784s.583 3.628.513 5.482h-20.43c0 1.166.162 2.375.492 3.628h0zm63.139-20.635a10.34 10.34 0 0 0-2.571-2.807 11.58 11.58 0 0 0-3.347-1.724c-1.217-.393-2.494-.59-3.833-.59-2.434 0-4.528.464-6.277 1.389s-3.185 2.152-4.295 3.679-1.943 3.253-2.475 5.172a22.08 22.08 0 0 0-.796 5.92 22.17 22.17 0 0 0 .796 5.892c.532 1.937 1.36 3.671 2.475 5.197s2.546 2.753 4.295 3.679 3.843 1.389 6.277 1.389c1.714 0 3.261-.309 4.635-.926s2.551-1.457 3.549-2.522 1.8-2.307 2.419-3.729 1.008-2.961 1.181-4.607h3.499c-.238 2.264-.771 4.305-1.593 6.123s-1.885 3.364-3.189 4.631a13.53 13.53 0 0 1-4.608 2.934c-1.765.687-3.733 1.029-5.893 1.029-2.88 0-5.41-.522-7.591-1.569s-3.985-2.444-5.43-4.193-2.52-3.775-3.241-6.073-1.079-4.718-1.079-7.255.36-4.959 1.079-7.256 1.801-4.333 3.241-6.1 3.251-3.172 5.43-4.219 4.711-1.569 7.591-1.569a17.22 17.22 0 0 1 5.121.771 14.86 14.86 0 0 1 4.528 2.289 13.37 13.37 0 0 1 3.398 3.732c.907 1.475 1.48 3.174 1.724 5.096h-3.5c-.308-1.408-.815-2.667-1.52-3.783m27.147 14.897c-.208.378-.597.652-1.181.824s-1.1.292-1.546.361l-4.244.643c-1.46.188-2.789.472-3.99.847s-2.186.92-2.957 1.623-1.162 1.706-1.162 3.009c0 .824.163 1.554.493 2.188.324.634.76 1.184 1.313 1.646a5.74 5.74 0 0 0 1.901 1.057c.72.238 1.46.36 2.216.36 1.233 0 2.419-.19 3.55-.568s2.119-.926 2.956-1.646 1.511-1.595 2.008-2.624.745-2.195.745-3.501v-4.219h-.102zm-16.21-7.925c.547-1.131 1.293-2.059 2.242-2.779.942-.72 2.048-1.252 3.315-1.594s2.678-.515 4.219-.515c1.166 0 2.333.111 3.504.334a8.45 8.45 0 0 1 3.138 1.261c.923.618 1.679 1.483 2.262 2.598s.877 2.566.877 4.348v14.102c0 1.303.634 1.955 1.901 1.955.381 0 .721-.069 1.03-.206v2.728l-1.004.154c-.289.034-.659.051-1.106.051-.821 0-1.485-.111-1.982-.334s-.882-.54-1.156-.951-.456-.903-.542-1.468-.127-1.192-.127-1.879h-.102c-.583.86-1.177 1.623-1.774 2.29-.604.669-1.274 1.227-2.008 1.673-.74.446-1.577.788-2.52 1.03-.949.24-2.069.359-3.373.359-1.237 0-2.393-.147-3.473-.436s-2.028-.755-2.829-1.389c-.812-.637-1.446-1.443-1.907-2.419s-.694-2.137-.694-3.476c0-1.85.41-3.301 1.237-4.347s1.912-1.844 3.265-2.394 2.88-.933 4.579-1.156l5.172-.644 1.806-.256c.511-.104.942-.284 1.282-.543s.608-.608.802-1.054c.187-.444.278-1.03.278-1.75 0-1.098-.178-1.997-.537-2.7s-.858-1.262-1.496-1.673-1.369-.695-2.211-.85a14.99 14.99 0 0 0-2.702-.23c-2.059 0-3.738.487-5.04 1.465-1.309.979-1.993 2.548-2.059 4.708h-3.246c.107-1.544.432-2.88.979-4.013h0zm36.589-4.118v2.729h-5.4v17.909c0 1.062.143 1.896.436 2.495s1.019.935 2.186 1.004a24.79 24.79 0 0 0 2.778-.155v2.728l-1.44.051-1.44.051c-2.16 0-3.67-.419-4.528-1.261s-1.272-2.393-1.237-4.657v-18.165h-4.629v-2.729h4.629v-7.975h3.245v7.975h5.4m21.566 12.043c-.208.378-.604.652-1.187.824s-1.095.292-1.542.361l-4.249.643c-1.455.188-2.783.472-3.985.847s-2.191.92-2.961 1.623-1.156 1.706-1.156 3.009c0 .824.162 1.554.486 2.188.33.634.766 1.184 1.314 1.646s1.186.816 1.906 1.057a7 7 0 0 0 2.211.36 11.12 11.12 0 0 0 3.55-.568c1.135-.375 2.119-.926 2.96-1.646a7.98 7.98 0 0 0 2.008-2.624c.497-1.029.746-2.195.746-3.501v-4.219h-.101zm-16.211-7.925c.548-1.131 1.293-2.059 2.236-2.779s2.049-1.252 3.321-1.594 2.672-.515 4.219-.515a18.58 18.58 0 0 1 3.498.334c1.167.224 2.211.642 3.139 1.261s1.684 1.483 2.267 2.598.872 2.566.872 4.348v14.102c0 1.303.634 1.955 1.907 1.955.375 0 .72-.069 1.029-.206v2.728l-1.004.154c-.294.034-.664.051-1.105.051-.827 0-1.486-.111-1.983-.334s-.882-.54-1.156-.951-.457-.903-.543-1.468-.127-1.192-.127-1.879h-.106c-.583.86-1.176 1.623-1.775 2.29a8.71 8.71 0 0 1-2.008 1.673c-.735.446-1.577.788-2.52 1.03s-2.068.359-3.371.359c-1.233 0-2.394-.147-3.474-.436s-2.023-.755-2.83-1.389-1.439-1.443-1.901-2.419-.695-2.137-.695-3.476c0-1.85.412-3.301 1.233-4.347s1.911-1.844 3.27-2.394 2.88-.933 4.579-1.156l5.172-.644 1.8-.256c.512-.104.944-.284 1.288-.543s.609-.608.796-1.054.284-1.03.284-1.75c0-1.098-.182-1.997-.543-2.7a4.25 4.25 0 0 0-1.491-1.673c-.634-.414-1.374-.695-2.21-.85-.842-.154-1.744-.23-2.703-.23-2.059 0-3.742.487-5.045 1.465s-1.988 2.548-2.058 4.708h-3.241c.102-1.544.426-2.88.979-4.013h0zm26.088 22.437h3.24v-36.743h-3.24zm27.995 0v-4.786h-.102c-.862 1.785-2.104 3.148-3.732 4.092s-3.443 1.414-5.43 1.414c-1.683 0-3.113-.231-4.295-.694s-2.145-1.123-2.885-1.98-1.278-1.904-1.618-3.142-.517-2.639-.517-4.218v-17.241h3.24v17.291c.071 2.404.629 4.222 1.674 5.456s2.859 1.854 5.43 1.854c1.405 0 2.606-.302 3.6-.903s1.82-1.397 2.475-2.391c.649-.996 1.131-2.137 1.44-3.422a16.81 16.81 0 0 0 .461-3.938v-13.947h3.24v26.555h-2.981m12.296-26.555v4.582h.106c.619-1.612 1.714-2.908 3.291-3.887s3.311-1.465 5.197-1.465c1.856 0 3.408.241 4.661.72s2.255 1.158 3.011 2.033c.75.875 1.284 1.947 1.592 3.215s.462 2.695.462 4.272v17.085h-3.24v-16.57a15.18 15.18 0 0 0-.31-3.164c-.202-.979-.562-1.828-1.08-2.548-.512-.72-1.207-1.286-2.084-1.699s-1.962-.616-3.265-.616-2.464.23-3.473.695a7.48 7.48 0 0 0-2.576 1.904c-.705.806-1.252 1.767-1.648 2.88s-.608 2.325-.644 3.628v15.49h-3.24v-26.555h3.24m24.912 0l8.746 22.644 8.185-22.644h3.24l-11.526 30.569-1.338 2.804c-.417.737-.868 1.32-1.365 1.751s-1.08.736-1.749.926-1.521.284-2.551.284l-1.515-.079c-.361-.017-.68-.076-.954-.18v-2.728l1.105.18c.361.054.731.079 1.112.079.719 0 1.307-.104 1.774-.309a3.8 3.8 0 0 0 1.207-.85c.345-.36.634-.796.877-1.31l.77-1.699 1.131-2.987-10.597-26.451h3.448m40.24 12.043c-.208.378-.599.652-1.182.824s-1.1.292-1.546.361l-4.245.643c-1.46.188-2.788.472-3.99.847s-2.185.92-2.956 1.623-1.161 1.706-1.161 3.009c0 .824.162 1.554.492 2.188.324.634.76 1.184 1.313 1.646a5.73 5.73 0 0 0 1.901 1.057c.721.238 1.461.36 2.216.36 1.232 0 2.419-.19 3.55-.568s2.119-.926 2.956-1.646a7.98 7.98 0 0 0 2.008-2.624c.497-1.029.746-2.195.746-3.501v-4.219h-.102zm-16.211-7.925c.548-1.131 1.293-2.059 2.241-2.779s2.049-1.252 3.317-1.594 2.677-.515 4.219-.515c1.166 0 2.332.111 3.503.334s2.21.642 3.139 1.261c.923.618 1.678 1.483 2.261 2.598s.878 2.566.878 4.348v14.102c0 1.303.634 1.955 1.901 1.955a2.5 2.5 0 0 0 1.029-.206v2.728l-1.003.154a9.83 9.83 0 0 1-1.106.051c-.821 0-1.486-.111-1.982-.334s-.883-.54-1.157-.951-.457-.903-.543-1.468-.127-1.192-.127-1.879h-.1c-.584.86-1.177 1.623-1.776 2.29s-1.272 1.227-2.007 1.673c-.741.446-1.577.788-2.521 1.03s-2.068.359-3.371.359c-1.237 0-2.393-.147-3.474-.436s-2.028-.755-2.829-1.389c-.811-.637-1.445-1.443-1.907-2.419s-.694-2.137-.694-3.476c0-1.85.411-3.301 1.237-4.347s1.911-1.844 3.266-2.394 2.88-.933 4.578-1.156l5.173-.644 1.804-.256c.512-.104.944-.284 1.284-.543s.608-.608.8-1.054.28-1.03.28-1.75c0-1.098-.178-1.997-.538-2.7a4.24 4.24 0 0 0-1.497-1.673c-.633-.414-1.368-.695-2.209-.85s-1.74-.23-2.704-.23c-2.058 0-3.737.487-5.04 1.465s-1.993 2.548-2.058 4.708h-3.245c.106-1.544.43-2.88.978-4.013h0zm-494.229 59.49l-7.099-18.837-7.357 18.837h14.456zm-4.99-22.335l14.411 36.744h-3.757l-4.478-11.424h-16.727l-4.422 11.424h-3.707l14.77-36.744h3.91 0zm16.571 5.197h3.24v-5.197h-3.24v5.197zm3.24 4.992v28.974a16.85 16.85 0 0 1-.228 2.829c-.158.892-.447 1.673-.877 2.342a4.66 4.66 0 0 1-1.749 1.595c-.741.396-1.674.593-2.805.593a11.4 11.4 0 0 1-1.106-.053l-1.11-.051v-2.674l.878.076a4.3 4.3 0 0 0 .821-.026c1.273 0 2.079-.37 2.418-1.108.345-.737.518-1.655.518-2.753v-29.744h3.24 0zm24.085 26.555v-4.787h-.102c-.861 1.785-2.103 3.149-3.731 4.092s-3.443 1.415-5.431 1.415c-1.683 0-3.113-.231-4.295-.695s-2.144-1.123-2.884-1.98-1.279-1.904-1.619-3.141-.516-2.639-.516-4.219v-17.24h3.24v17.291c.07 2.403.628 4.221 1.673 5.455s2.859 1.854 5.431 1.854c1.404 0 2.606-.302 3.599-.903a7.63 7.63 0 0 0 2.475-2.39c.649-.997 1.131-2.138 1.44-3.423a16.79 16.79 0 0 0 .461-3.937v-13.947h3.24v26.555h-2.981m11.678-26.555v4.581h.106c.618-1.612 1.714-2.908 3.291-3.886a9.69 9.69 0 0 1 5.197-1.466c1.856 0 3.408.241 4.661.72s2.255 1.159 3.011 2.034c.75.874 1.283 1.947 1.592 3.214s.462 2.695.462 4.272v17.086h-3.24v-16.571c0-1.134-.102-2.188-.31-3.164-.203-.979-.562-1.828-1.08-2.548-.512-.72-1.207-1.285-2.084-1.699s-1.962-.616-3.265-.616-2.464.231-3.473.695c-1.015.461-1.871 1.098-2.576 1.904s-1.253 1.767-1.649 2.88-.608 2.325-.643 3.628v15.491h-3.241v-26.555h3.241m34.379 0v2.728h-5.406v17.909c0 1.063.147 1.897.436 2.495s1.024.935 2.19 1.004a24.97 24.97 0 0 0 2.78-.155v2.728l-1.441.051-1.445.051c-2.16 0-3.671-.419-4.527-1.26s-1.269-2.393-1.233-4.658v-18.165h-4.635v-2.728h4.635v-7.976h3.24v7.976h5.406m20.946 12.043c-.208.377-.604.651-1.187.824s-1.095.291-1.541.359l-4.25.645c-1.455.187-2.783.471-3.985.846-1.201.381-2.19.921-2.961 1.623s-1.156 1.706-1.156 3.01c0 .823.162 1.554.487 2.187s.766 1.184 1.313 1.646 1.186.816 1.907 1.057 1.455.36 2.21.36a11.12 11.12 0 0 0 3.55-.568c1.135-.375 2.119-.925 2.961-1.645a7.99 7.99 0 0 0 2.008-2.624c.496-1.03.745-2.196.745-3.501v-4.219h-.101zm-16.211-7.926c.548-1.13 1.293-2.059 2.236-2.778s2.049-1.253 3.322-1.595c1.267-.342 2.671-.515 4.218-.515a18.6 18.6 0 0 1 3.499.335 8.45 8.45 0 0 1 3.139 1.26c.928.619 1.683 1.483 2.267 2.599s.872 2.565.872 4.348v14.101c0 1.303.633 1.955 1.906 1.955.375 0 .72-.069 1.029-.206v2.729l-1.004.154a10.17 10.17 0 0 1-1.105.051c-.826 0-1.485-.112-1.983-.335a2.65 2.65 0 0 1-1.156-.951c-.274-.411-.456-.902-.543-1.468s-.126-1.191-.126-1.878h-.106c-.584.859-1.177 1.622-1.776 2.289a8.8 8.8 0 0 1-2.007 1.673c-.74.446-1.578.789-2.52 1.029s-2.069.361-3.372.361c-1.232 0-2.394-.147-3.474-.436a7.77 7.77 0 0 1-2.829-1.39 6.64 6.64 0 0 1-1.901-2.418c-.467-.979-.695-2.138-.695-3.476 0-1.851.411-3.301 1.232-4.348s1.911-1.843 3.271-2.394c1.353-.547 2.879-.933 4.579-1.156l5.172-.644 1.799-.256c.512-.104.944-.283 1.288-.542s.609-.609.796-1.055.284-1.029.284-1.749c0-1.098-.182-1.998-.542-2.701a4.27 4.27 0 0 0-1.491-1.673c-.634-.411-1.374-.694-2.211-.849s-1.744-.231-2.703-.231c-2.058 0-3.742.487-5.045 1.466s-1.987 2.548-2.058 4.708h-3.241c.102-1.544.426-2.881.979-4.014h0zm28.405-4.117v4.477h.153c.857-1.645 1.982-2.933 3.372-3.858s3.164-1.39 5.324-1.39c1.754 0 3.336.429 4.761 1.286s2.379 2.162 2.86 3.912c.786-1.75 1.952-3.053 3.498-3.912a10.01 10.01 0 0 1 4.939-1.286c5.867 0 8.797 3.106 8.797 9.315v18.011h-3.24V199.75c0-2.196-.461-3.869-1.389-5.018s-2.555-1.724-4.887-1.724c-1.41 0-2.576.267-3.499.796a6.14 6.14 0 0 0-2.216 2.138c-.548.892-.934 1.911-1.156 3.06a18.67 18.67 0 0 0-.335 3.577v15.027h-3.241v-18.011c0-.893-.095-1.742-.283-2.548s-.497-1.508-.928-2.109-1.004-1.073-1.724-1.415-1.592-.515-2.621-.515c-1.374 0-2.567.248-3.58.746s-1.836 1.184-2.47 2.058-1.105 1.904-1.414 3.089-.462 2.476-.462 3.883v14.822H399.6v-26.555h2.986m57.663 7.874c-.395-1.132-.953-2.137-1.673-3.011a8.32 8.32 0 0 0-2.626-2.11c-1.029-.533-2.196-.796-3.499-.796-1.339 0-2.52.267-3.549.796s-1.908 1.235-2.627 2.11-1.293 1.888-1.724 3.037a14.82 14.82 0 0 0-.848 3.524h17.185c-.03-1.235-.248-2.419-.639-3.55zm-16.058 9.906c.324 1.253.851 2.376 1.572 3.372a8.93 8.93 0 0 0 2.728 2.469c1.095.652 2.418.979 3.96.979 2.368 0 4.218-.619 5.557-1.854s2.267-2.882 2.778-4.94h3.246c-.69 3.019-1.953 5.352-3.783 6.999-1.836 1.646-4.436 2.47-7.798 2.47-2.094 0-3.905-.368-5.431-1.106s-2.769-1.749-3.727-3.037c-.964-1.285-1.674-2.779-2.139-4.477s-.696-3.492-.696-5.378a19.33 19.33 0 0 1 .696-5.146c.465-1.681 1.175-3.182 2.139-4.503.958-1.321 2.2-2.383 3.727-3.19s3.337-1.209 5.431-1.209c2.125 0 3.945.429 5.456 1.286 1.505.859 2.733 1.982 3.675 3.372s1.623 2.984 2.035 4.784a20.94 20.94 0 0 1 .516 5.481h-20.43c0 1.166.164 2.376.488 3.628h0zm26.839-17.78v4.581h.101c.618-1.612 1.714-2.908 3.296-3.886 1.576-.976 3.311-1.466 5.197-1.466 1.851 0 3.403.241 4.655.72s2.256 1.159 3.011 2.034 1.288 1.947 1.598 3.214.461 2.695.461 4.272v17.086h-3.239v-16.571a15.59 15.59 0 0 0-.31-3.164c-.208-.979-.568-1.828-1.08-2.548-.518-.72-1.212-1.285-2.084-1.699s-1.968-.616-3.27-.616-2.465.231-3.474.695-1.871 1.098-2.57 1.904c-.705.806-1.258 1.767-1.649 2.88s-.608 2.325-.643 3.628v15.491h-3.241v-26.555h3.241m34.373 0v2.728h-5.401v17.909c0 1.063.143 1.897.437 2.495.289.601 1.019.935 2.185 1.004a24.82 24.82 0 0 0 2.779-.155v2.728l-1.441.051-1.439.051c-2.16 0-3.671-.419-4.529-1.26s-1.272-2.393-1.237-4.658v-18.165h-4.629v-2.728h4.629v-7.976h3.245v7.976h5.401m18.862 17.37c.325 1.355.837 2.565 1.542 3.627s1.602 1.93 2.702 2.599 2.419 1.004 3.96 1.004c1.72 0 3.17-.334 4.351-1.004s2.145-1.537 2.88-2.599c.741-1.062 1.273-2.272 1.597-3.627a17.5 17.5 0 0 0 .487-4.093 17.51 17.51 0 0 0-.487-4.092c-.324-1.354-.856-2.563-1.597-3.627-.735-1.063-1.699-1.93-2.88-2.599s-2.631-1.002-4.351-1.002c-1.541 0-2.864.332-3.96 1.002s-1.997 1.536-2.702 2.599-1.217 2.273-1.542 3.627-.491 2.721-.491 4.092.162 2.736.491 4.093zm17.778 9.185v-5.043h-.101c-.345.857-.853 1.646-1.522 2.368a9.74 9.74 0 0 1-2.287 1.825c-.856.498-1.774.883-2.753 1.159s-1.947.411-2.911.411c-2.022 0-3.777-.368-5.273-1.106s-2.733-1.749-3.732-3.037-1.729-2.779-2.211-4.477-.72-3.492-.72-5.378.239-3.678.72-5.377 1.217-3.19 2.211-4.477 2.241-2.307 3.732-3.063 3.251-1.131 5.273-1.131a11.75 11.75 0 0 1 2.911.36 9.83 9.83 0 0 1 2.651 1.106c.823.499 1.552 1.108 2.186 1.827a7.74 7.74 0 0 1 1.466 2.521h.101v-15.232h3.246v36.744h-2.987 0zm26.99-18.681c-.395-1.132-.953-2.137-1.672-3.011a8.3 8.3 0 0 0-2.622-2.11c-1.03-.529-2.196-.796-3.499-.796-1.338 0-2.525.267-3.554.796a8.28 8.28 0 0 0-2.622 2.11c-.72.874-1.298 1.888-1.724 3.037s-.715 2.325-.851 3.524h17.188c-.035-1.235-.248-2.419-.644-3.55zm-16.053 9.906c.325 1.253.846 2.376 1.567 3.372a8.93 8.93 0 0 0 2.728 2.469c1.101.651 2.419.979 3.965.979 2.363 0 4.218-.619 5.557-1.854 1.334-1.234 2.262-2.882 2.779-4.94h3.24c-.685 3.019-1.947 5.352-3.783 6.999s-4.431 2.47-7.793 2.47c-2.094 0-3.905-.368-5.43-1.106s-2.775-1.749-3.733-3.037-1.672-2.779-2.134-4.477-.695-3.492-.695-5.378a19.13 19.13 0 0 1 .695-5.146c.462-1.681 1.176-3.182 2.134-4.503s2.206-2.383 3.733-3.19 3.336-1.209 5.43-1.209c2.125 0 3.945.429 5.451 1.286s2.738 1.982 3.681 3.372 1.622 2.984 2.034 4.784a20.84 20.84 0 0 1 .511 5.481h-20.428c0 1.166.162 2.376.491 3.628h0zm51.999 5.791c1.308 0 2.54-.112 3.707-.335s2.195-.626 3.088-1.209a6.16 6.16 0 0 0 2.109-2.343c.513-.978.771-2.203.771-3.679 0-2.367-.832-4.142-2.496-5.326s-4.056-1.775-7.179-1.775h-12.037v14.667h12.037zm0-17.651c1.41 0 2.627-.165 3.656-.489s1.886-.773 2.575-1.339a5.49 5.49 0 0 0 1.542-1.983 5.74 5.74 0 0 0 .512-2.418c0-4.597-2.758-6.894-8.285-6.894h-12.037v13.123h12.037zm0-16.109c1.547 0 3.032.147 4.452.438s2.677.789 3.757 1.491a7.98 7.98 0 0 1 2.601 2.778c.65 1.152.979 2.584.979 4.298 0 .961-.157 1.896-.467 2.806s-.745 1.732-1.312 2.47a8.34 8.34 0 0 1-2.003 1.879c-.777.514-1.644.874-2.602 1.08v.104c2.368.306 4.254 1.278 5.664 2.905 1.404 1.63 2.109 3.646 2.109 6.049 0 .583-.055 1.242-.157 1.98s-.309 1.493-.619 2.264-.755 1.537-1.333 2.289c-.588.756-1.364 1.418-2.343 1.983s-2.18 1.03-3.605 1.39-3.128.54-5.121.54h-15.541v-36.744h15.541 0z"/><path d="M639.408 203.094c-.208.377-.598.651-1.181.824a11.9 11.9 0 0 1-1.547.359l-4.244.645c-1.46.187-2.789.471-3.99.846-1.203.381-2.186.921-2.956 1.623s-1.162 1.706-1.162 3.01c0 .823.162 1.554.492 2.187a5.23 5.23 0 0 0 1.313 1.646c.548.464 1.182.816 1.901 1.057a6.94 6.94 0 0 0 2.216.36c1.233 0 2.419-.19 3.55-.568s2.119-.925 2.956-1.645 1.511-1.595 2.008-2.624.745-2.196.745-3.501v-4.219h-.101zm-16.21-7.926c.547-1.13 1.292-2.059 2.241-2.778.943-.72 2.049-1.253 3.316-1.595s2.677-.515 4.219-.515c1.166 0 2.332.112 3.503.335s2.211.641 3.138 1.26 1.679 1.483 2.262 2.599.877 2.565.877 4.348v14.101c0 1.303.635 1.955 1.902 1.955a2.51 2.51 0 0 0 1.03-.206v2.729l-1.004.154c-.289.033-.659.051-1.106.051-.822 0-1.486-.112-1.983-.335s-.882-.54-1.155-.951-.457-.902-.543-1.468a13.25 13.25 0 0 1-.127-1.878h-.102c-.583.859-1.176 1.622-1.774 2.289a8.97 8.97 0 0 1-2.008 1.673c-.74.446-1.577.789-2.52 1.029-.949.242-2.069.361-3.373.361-1.236 0-2.392-.147-3.472-.436s-2.029-.756-2.829-1.39c-.812-.636-1.446-1.442-1.908-2.418s-.694-2.138-.694-3.476c0-1.851.41-3.301 1.237-4.348s1.912-1.843 3.266-2.394 2.88-.933 4.578-1.156l5.172-.644 1.806-.256c.511-.104.943-.283 1.282-.542.346-.257.609-.609.802-1.055.187-.444.278-1.029.278-1.749 0-1.098-.177-1.998-.537-2.701s-.857-1.262-1.496-1.673-1.369-.694-2.21-.849-1.739-.231-2.703-.231c-2.059 0-3.738.487-5.04 1.466-1.309.978-1.993 2.548-2.059 4.708h-3.245c.106-1.544.431-2.881.979-4.014h0zm28.354-4.117v6.226h.102c.826-2.159 2.099-3.822 3.833-4.991s3.803-1.697 6.202-1.595v3.243c-1.477-.069-2.815.129-4.012.591s-2.241 1.125-3.113 1.982a8.84 8.84 0 0 0-2.033 3.062c-.482 1.182-.72 2.478-.72 3.885v14.152h-3.245v-26.555h2.986m27.944 3.653c-1.202-1.131-2.885-1.696-5.046-1.696-1.541 0-2.9.325-4.066.976a8.9 8.9 0 0 0-2.905 2.574c-.77 1.063-1.354 2.274-1.749 3.628a14.7 14.7 0 0 0-.594 4.142 14.69 14.69 0 0 0 .594 4.143c.395 1.356.978 2.566 1.749 3.628a8.92 8.92 0 0 0 2.905 2.573c1.166.651 2.525.979 4.066.979.995 0 1.938-.19 2.831-.568a7.55 7.55 0 0 0 2.368-1.569c.683-.67 1.252-1.466 1.698-2.394s.72-1.937.826-3.034h3.24c-.446 3.225-1.632 5.737-3.548 7.54-1.922 1.8-4.397 2.7-7.415 2.7-2.022 0-3.817-.368-5.374-1.106s-2.875-1.741-3.94-3.011-1.871-2.754-2.418-4.45-.822-3.509-.822-5.431.274-3.729.822-5.427 1.354-3.183 2.418-4.453 2.378-2.281 3.94-3.037 3.352-1.131 5.374-1.131c2.85 0 5.259.756 7.232 2.264s3.148 3.791 3.523 6.846h-3.24c-.446-1.99-1.267-3.552-2.469-4.686m28.228 4.221c-.396-1.132-.953-2.137-1.673-3.011a8.32 8.32 0 0 0-2.627-2.11c-1.029-.529-2.195-.796-3.499-.796-1.338 0-2.519.267-3.549.796a8.32 8.32 0 0 0-2.627 2.11c-.719.874-1.293 1.888-1.723 3.037a14.82 14.82 0 0 0-.847 3.524h17.184c-.031-1.235-.248-2.419-.639-3.55zm-16.059 9.906c.325 1.253.853 2.376 1.573 3.372a8.94 8.94 0 0 0 2.727 2.469c1.096.652 2.419.979 3.96.979 2.368 0 4.219-.619 5.558-1.854s2.266-2.882 2.779-4.94h3.245c-.69 3.019-1.952 5.352-3.783 6.999s-4.437 2.47-7.799 2.47c-2.094 0-3.904-.368-5.431-1.106s-2.767-1.749-3.726-3.037-1.673-2.779-2.14-4.477-.694-3.492-.694-5.378a19.33 19.33 0 0 1 .694-5.146c.467-1.681 1.177-3.182 2.14-4.503s2.201-2.383 3.726-3.19 3.337-1.209 5.431-1.209c2.125 0 3.945.429 5.456 1.286s2.734 1.982 3.677 3.372 1.622 2.984 2.033 4.784a20.94 20.94 0 0 1 .517 5.481h-20.429c0 1.166.162 2.376.486 3.628h0zm23.696 8.775h3.245v-36.744h-3.245zm16.007-23.622c-1.166.652-2.134 1.511-2.911 2.574-.77 1.065-1.353 2.274-1.749 3.628-.39 1.356-.588 2.736-.588 4.142a14.91 14.91 0 0 0 .588 4.143c.396 1.356.979 2.566 1.749 3.628.777 1.065 1.745 1.922 2.911 2.573s2.52.979 4.067.979c1.541 0 2.895-.327 4.061-.979s2.14-1.508 2.91-2.573 1.355-2.272 1.75-3.628a14.69 14.69 0 0 0 .593-4.143 14.7 14.7 0 0 0-.593-4.142c-.395-1.354-.978-2.563-1.75-3.628a8.93 8.93 0 0 0-2.91-2.574c-1.166-.651-2.52-.976-4.061-.976-1.547 0-2.901.325-4.067.976zm9.442-2.573c1.561.756 2.875 1.767 3.939 3.037s1.866 2.754 2.419 4.453.822 3.505.822 5.427-.274 3.732-.822 5.431-1.359 3.182-2.419 4.45-2.378 2.274-3.939 3.011-3.352 1.106-5.375 1.106c-2.029 0-3.819-.368-5.38-1.106a11.37 11.37 0 0 1-3.935-3.011c-1.065-1.268-1.871-2.754-2.419-4.45s-.826-3.509-.826-5.431.274-3.729.826-5.427 1.354-3.183 2.419-4.453 2.373-2.281 3.935-3.037 3.351-1.131 5.38-1.131c2.023 0 3.813.378 5.375 1.131h0zm14.537-.36v4.581h.106c.62-1.612 1.714-2.908 3.291-3.886s3.311-1.466 5.198-1.466c1.855 0 3.407.241 4.66.72s2.256 1.159 3.012 2.034c.75.874 1.282 1.947 1.591 3.214s.462 2.695.462 4.272v17.086h-3.24v-16.571c0-1.134-.102-2.188-.31-3.164s-.562-1.828-1.08-2.548c-.511-.72-1.207-1.285-2.084-1.699s-1.962-.616-3.265-.616-2.464.231-3.473.695c-1.015.461-1.871 1.098-2.576 1.904s-1.253 1.767-1.649 2.88-.608 2.325-.643 3.628v15.491h-3.24v-26.555h3.24m40.707 12.043c-.208.377-.599.651-1.182.824a11.7 11.7 0 0 1-1.547.359l-4.244.645c-1.46.187-2.789.471-3.99.846-1.202.381-2.185.921-2.956 1.623s-1.161 1.706-1.161 3.01c0 .823.162 1.554.491 2.187a5.3 5.3 0 0 0 1.314 1.646c.547.464 1.181.816 1.901 1.057s1.461.36 2.216.36c1.232 0 2.419-.19 3.55-.568s2.119-.925 2.956-1.645a8.03 8.03 0 0 0 2.007-2.624c.497-1.029.746-2.196.746-3.501v-4.219h-.101zm-16.211-7.926c.548-1.13 1.293-2.059 2.241-2.778s2.049-1.253 3.317-1.595 2.676-.515 4.218-.515c1.166 0 2.332.112 3.503.335s2.211.641 3.139 1.26 1.679 1.483 2.262 2.599.877 2.565.877 4.348v14.101c0 1.303.633 1.955 1.902 1.955a2.5 2.5 0 0 0 1.029-.206v2.729l-1.004.154a10.04 10.04 0 0 1-1.105.051c-.822 0-1.486-.112-1.983-.335s-.882-.54-1.156-.951-.457-.902-.543-1.468a13.25 13.25 0 0 1-.127-1.878h-.101a21.46 21.46 0 0 1-1.775 2.289c-.603.669-1.272 1.227-2.007 1.673-.741.446-1.578.789-2.521 1.029s-2.068.361-3.372.361c-1.236 0-2.393-.147-3.473-.436s-2.028-.756-2.829-1.39c-.811-.636-1.445-1.442-1.907-2.418s-.694-2.138-.694-3.476c0-1.851.41-3.301 1.237-4.348.821-1.045 1.911-1.843 3.266-2.394s2.879-.933 4.578-1.156l5.172-.644 1.805-.256c.512-.104.944-.283 1.282-.542.346-.257.61-.609.802-1.055s.279-1.029.279-1.749c0-1.098-.177-1.998-.538-2.701a4.23 4.23 0 0 0-1.496-1.673c-.633-.413-1.369-.694-2.211-.849a14.89 14.89 0 0 0-2.702-.231c-2.058 0-3.737.487-5.04 1.466s-1.993 2.548-2.058 4.708h-3.245c.106-1.544.43-2.881.978-4.014h0zm-615.74-37.526c-2.516 0-4.896 1.36-6.001 3.618-8.2 16.815-25.42 28.497-45.296 28.497-26.441 0-50.457-21.753-50.668-50.023-.021-2.306 1.781-4.224 4.087-4.224h143.798c6.396 0 11.609-4.979 12.07-11.358.157-2.198.247-4.447.247-6.843C222.34 52.813 173.854.53 112.051.53 50.255.53.159 52.813.159 117.309s50.096 116.778 111.892 116.778c45.302 0 84.188-28.16 101.775-68.573 1.614-3.705-1.12-7.872-5.167-7.872h-44.556zM112.806 43.948c27.418 0 50.124 20.627 51.908 51.026.127 2.112-1.64 3.883-3.759 3.883H64.193c-1.881 0-3.479-1.538-3.436-3.416.679-28.928 24.558-51.493 52.049-51.493h0z"/></svg>
